<svg preserveAspectRatio="none" width="100%" height="100%" overflow="visible" style="display: block;" viewBox="0 0 22.3368 22.3368" fill="none" xmlns="http://www.w3.org/2000/svg">
<path id="Union" d="M21.0565 0.21963C21.3494 -0.0731974 21.8242 -0.0730662 22.1171 0.21963C22.41 0.512522 22.41 0.987283 22.1171 1.28018L12.2284 11.1679L22.1171 21.0565C22.41 21.3494 22.41 21.8242 22.1171 22.1171C21.8242 22.41 21.3494 22.41 21.0565 22.1171L11.1679 12.2284L1.28018 22.1171C0.987284 22.41 0.512524 22.41 0.21963 22.1171C-0.0730414 21.8242 -0.0731888 21.3494 0.21963 21.0565L10.1073 11.1679L0.21963 1.28018C-0.0731834 0.987277 -0.0732366 0.512496 0.21963 0.21963C0.512497 -0.0732358 0.987278 -0.0731839 1.28018 0.21963L11.1679 10.1073L21.0565 0.21963Z" fill="var(--fill-0, white)"/>
</svg>
